<?xml version="1.0" standalone="no"?><!DOCTYPE svg PUBLIC "-//W3C//DTD SVG 1.1//EN" "http://www.w3.org/Graphics/SVG/1.1/DTD/svg11.dtd"><svg class="icon" width="200px" height="172.25px" viewBox="0 0 1189 1024" version="1.1" xmlns="http://www.w3.org/2000/svg"><path fill="#1296db" d="M1136.16896 1020.48768h-159.07328a45.40416 45.40416 0 0 1-45.45024-45.35296v-136.07424a45.40416 45.40416 0 0 1 45.45024-45.35296h45.48608v-204.14464a45.40416 45.40416 0 0 0-45.45024-45.35296h-363.61216v249.4976h45.45024a45.40416 45.40416 0 0 1 45.45024 45.35296v136.07424a45.40416 45.40416 0 0 1-45.45024 45.35296H499.96288a45.39904 45.39904 0 0 1-45.43488-45.35296v-136.07424a45.39904 45.39904 0 0 1 45.43488-45.35296h45.45024V544.256H204.50816a45.40416 45.40416 0 0 0-45.45024 45.35296v204.14464h45.45024a45.40416 45.40416 0 0 1 45.45024 45.35296v136.07424a45.40416 45.40416 0 0 1-45.45024 45.35296H45.43488A45.40416 45.40416 0 0 1 0 975.16544V839.06048a45.40416 45.40416 0 0 1 45.45024-45.35296h45.43488v-226.7648c0.05632-50.14528 40.74496-90.752 90.88512-90.70592h363.57632V226.7648h-45.38368a45.39904 45.39904 0 0 1-45.43488-45.35296V45.35296A45.39904 45.39904 0 0 1 499.96288 0h159.07328a45.39904 45.39904 0 0 1 45.43488 45.35296v136.05888a45.39904 45.39904 0 0 1-45.43488 45.35296h-45.5168v249.45152h386.30912c50.14528-0.04608 90.83392 40.56064 90.88512 90.70592v226.78016h45.45024a45.40416 45.40416 0 0 1 45.45024 45.35296v136.07424a45.39904 45.39904 0 0 1-45.44512 45.35808"  /></svg>