<?xml version="1.0" standalone="no"?><!DOCTYPE svg PUBLIC "-//W3C//DTD SVG 1.1//EN" "http://www.w3.org/Graphics/SVG/1.1/DTD/svg11.dtd"><svg class="icon" width="200px" height="200.00px" viewBox="0 0 1024 1024" version="1.1" xmlns="http://www.w3.org/2000/svg"><path fill="#1296db" d="M84.032 815.808H455.04v-82.304H180.48V538.496h224.512V456.96H180.416V290.944h265.472V209.152H84.032v606.72z m435.2 0h99.712l53.312-95.616c14.08-26.816 28.16-53.888 42.56-79.36h4.032c16.512 25.472 32.512 53.376 47.36 79.36l59.904 95.616h104l-147.072-224.768 137.024-225.92H820.48l-48.192 91.008c-13.568 25.472-26.048 50.688-37.632 76.16h-4.096a3623.104 3623.104 0 0 1-43.328-76.16l-53.888-90.944H529.28l137.024 216.128-147.072 234.496z"  /></svg>