<?xml version="1.0" standalone="no"?><!DOCTYPE svg PUBLIC "-//W3C//DTD SVG 1.1//EN" "http://www.w3.org/Graphics/SVG/1.1/DTD/svg11.dtd"><svg class="icon" width="200px" height="200.00px" viewBox="0 0 1024 1024" version="1.1" xmlns="http://www.w3.org/2000/svg"><path fill="#1296db" d="M512.256 127.616c-31.744 0-64.085333 6.101333-89.344 18.688L152.234667 280.96c-16.256 8.874667-23.978667 23.210667-23.978667 38.656v317.354667c0 51.242667 35.328 107.776 81.322667 130.645333l224 110.677333c44.8 22.229333 112.554667 22.272 157.354666 0l224-110.677333c46.378667-23.04 81.322667-78.933333 81.322667-130.645333V319.616a41.898667 41.898667 0 0 0-23.978667-38.656L601.6 146.346667c-25.258667-12.586667-57.6-18.688-89.344-18.688z m-50.688 94.72c26.624-13.226667 74.752-13.226667 101.376 0l194.645333 97.28-194.645333 96c-26.624 13.226667-74.752 13.226667-101.376 0-2.986667-1.493333-166.314667-81.92-194.645333-96l194.645333-97.28zM213.589333 388.906667c39.338667 19.626667 72.234667 34.986667 114.688 56.021333 35.285333 17.493333 82.56 41.045333 94.634667 46.634667 18.517333 8.576 30.72 12.885333 46.677333 16v293.333333l-222.72-110.634667c-16.938667-8.448-33.28-34.56-33.28-53.333333V388.949333z m597.333334 0v248.021333c0 19.2-17.28 45.994667-34.645334 54.656l-221.354666 109.312v-293.333333c15.914667-3.114667 32.170667-8.106667 45.312-14.677334l210.688-103.978666z"  /></svg>